# xmcd
# 
# Track frame offsets:
#     150
#     20362
#     32663
#     45101
# 
# Disc length: 892
# 
# Revision: 0
# Processed by: cddbd v1.5.2PL0 Copyright (c) Steve Scherf et al.
# Submitted via: fre:ac v1.0.17
# 
DISCID=1f037a04
DTITLE=Bad Boat - Breathing Space (Demo 2004)
DYEAR=2004
DGENRE=Stoner Rock/Metal
TTITLE0=Breakdown
TTITLE1=King Of Sour Chasm
TTITLE2=Belive Me Alone
TTITLE3=Beyond The Deadline
EXTD=
EXTT0=
EXTT1=
EXTT2=
EXTT3=
PLAYORDER=
